<?xml version="1.0" encoding="utf-8"?>
<!-- Generator: Adobe Illustrator 16.0.0, SVG Export Plug-In . SVG Version: 6.00 Build 0)  -->
<!DOCTYPE svg PUBLIC "-//W3C//DTD SVG 1.1//EN" "http://www.w3.org/Graphics/SVG/1.1/DTD/svg11.dtd">
<svg version="1.1" id="Lager_4" xmlns="http://www.w3.org/2000/svg" xmlns:xlink="http://www.w3.org/1999/xlink" x="0px" y="0px"
	 width="716.868px" height="1000px" viewBox="0 0 716.868 1000" enable-background="new 0 0 716.868 1000" xml:space="preserve">
<path fill="#FFFFFF" d="M2.931,999.921l42.441-27.812L242.569,580h233.937l194.887,391.918l42.315,28.037l3.16-50.629L533.224,580
	h93.619c13.312,0,24.1-10.688,24.1-24c0-13.311-10.788-24-24.1-24H509.258l-56.492-113.798
	c40.54-29.314,64.869-76.205,64.869-127.467c0-78.647-57.978-144.049-133.436-155.628l-0.627-111.142
	c-0.075-13.31-10.885-24.06-24.237-23.927c-13.31,0.075-24.04,11.014-23.964,24.325l0.625,110.746
	c-75.334,11.688-133.181,76.985-133.181,155.543c0,51.021,24.17,97.884,64.442,127.232L209.962,532H93.607
	c-13.31,0-24.101,10.689-24.101,24c0,13.312,10.791,24,24.101,24h92.118L0,949.296 M251.017,290.651
	c0-58.446,46.152-105.906,103.926-108.672c1.701,0.393,3.464,1.021,5.279,1.021c0.047,0,0.093,0,0.14,0
	c1.242,0,2.453-0.779,3.645-1.059c58.469,2.004,105.426,49.962,105.426,108.911c0,32.758-14.318,62.797-38.557,83.25l-47.81-96.211
	c-4.282-8.612-13.063-14.091-22.681-14.113c-9.632,0.02-18.423,5.38-22.744,13.973l-48.299,96.048
	C265.25,353.34,251.017,323.264,251.017,290.651z M266.806,532l93.393-185.738L452.542,532H266.806z"/>
</svg>
